%TF.GenerationSoftware,KiCad,Pcbnew,(7.0.0-0)*%
%TF.CreationDate,2023-03-29T11:58:47+02:00*%
%TF.ProjectId,tmc2209_devboard,746d6332-3230-4395-9f64-6576626f6172,rev?*%
%TF.SameCoordinates,Original*%
%TF.FileFunction,Soldermask,Bot*%
%TF.FilePolarity,Negative*%
%FSLAX46Y46*%
G04 Gerber Fmt 4.6, Leading zero omitted, Abs format (unit mm)*
G04 Created by KiCad (PCBNEW (7.0.0-0)) date 2023-03-29 11:58:47*
%MOMM*%
%LPD*%
G01*
G04 APERTURE LIST*
G04 Aperture macros list*
%AMRoundRect*
0 Rectangle with rounded corners*
0 $1 Rounding radius*
0 $2 $3 $4 $5 $6 $7 $8 $9 X,Y pos of 4 corners*
0 Add a 4 corners polygon primitive as box body*
4,1,4,$2,$3,$4,$5,$6,$7,$8,$9,$2,$3,0*
0 Add four circle primitives for the rounded corners*
1,1,$1+$1,$2,$3*
1,1,$1+$1,$4,$5*
1,1,$1+$1,$6,$7*
1,1,$1+$1,$8,$9*
0 Add four rect primitives between the rounded corners*
20,1,$1+$1,$2,$3,$4,$5,0*
20,1,$1+$1,$4,$5,$6,$7,0*
20,1,$1+$1,$6,$7,$8,$9,0*
20,1,$1+$1,$8,$9,$2,$3,0*%
G04 Aperture macros list end*
%ADD10R,1.700000X1.700000*%
%ADD11O,1.700000X1.700000*%
%ADD12C,6.400000*%
%ADD13RoundRect,0.250000X-0.725000X0.600000X-0.725000X-0.600000X0.725000X-0.600000X0.725000X0.600000X0*%
%ADD14O,1.950000X1.700000*%
%ADD15C,1.400000*%
%ADD16R,3.500000X3.500000*%
%ADD17C,3.500000*%
%ADD18C,3.200000*%
%ADD19R,1.600000X1.600000*%
%ADD20O,1.600000X1.600000*%
G04 APERTURE END LIST*
D10*
%TO.C,J2*%
X44599999Y-46174999D03*
D11*
X44599999Y-48714999D03*
X44599999Y-51254999D03*
%TD*%
D12*
%TO.C,H1*%
X62000000Y-35000000D03*
%TD*%
%TO.C,H4*%
X62000000Y-66000000D03*
%TD*%
%TO.C,H3*%
X93000000Y-66000000D03*
%TD*%
D13*
%TO.C,J5*%
X97500000Y-48000000D03*
D14*
X97499999Y-50499999D03*
X97499999Y-52999999D03*
X97499999Y-55499999D03*
%TD*%
D15*
%TO.C,J1*%
X45675000Y-69500000D03*
X45675000Y-58500000D03*
D16*
X55674999Y-61499999D03*
D17*
X55675000Y-66500000D03*
%TD*%
D13*
%TO.C,J4*%
X103900000Y-47950000D03*
D14*
X103899999Y-50449999D03*
X103899999Y-52949999D03*
X103899999Y-55449999D03*
%TD*%
D12*
%TO.C,H2*%
X93000000Y-35000000D03*
%TD*%
D13*
%TO.C,J6*%
X100700000Y-48000000D03*
D14*
X100699999Y-50499999D03*
X100699999Y-52999999D03*
X100699999Y-55499999D03*
%TD*%
D18*
%TO.C,A1*%
X56462500Y-72900000D03*
X57732500Y-24640000D03*
X108532500Y-39880000D03*
X108532500Y-67820000D03*
D19*
X70432499Y-72899999D03*
D20*
X72972499Y-72899999D03*
X75512499Y-72899999D03*
X78052499Y-72899999D03*
X80592499Y-72899999D03*
X83132499Y-72899999D03*
X85672499Y-72899999D03*
X88212499Y-72899999D03*
X93292499Y-72899999D03*
X95832499Y-72899999D03*
X98372499Y-72899999D03*
X100912499Y-72899999D03*
X103452499Y-72899999D03*
X105992499Y-72899999D03*
X105992499Y-24639999D03*
X103452499Y-24639999D03*
X100912499Y-24639999D03*
X98372499Y-24639999D03*
X95832499Y-24639999D03*
X93292499Y-24639999D03*
X90752499Y-24639999D03*
X88212499Y-24639999D03*
X84152499Y-24639999D03*
X81612499Y-24639999D03*
X79072499Y-24639999D03*
X76532499Y-24639999D03*
X73992499Y-24639999D03*
X71452499Y-24639999D03*
X68912499Y-24639999D03*
X66372499Y-24639999D03*
%TD*%
M02*
