M48
; DRILL file {KiCad (7.0.0-0)} date Wednesday, 29. March 2023 at 11:58:44
; FORMAT={-:-/ absolute / metric / decimal}
; #@! TF.CreationDate,2023-03-29T11:58:44+02:00
; #@! TF.GenerationSoftware,Kicad,Pcbnew,(7.0.0-0)
; #@! TF.FileFunction,Plated,1,2,PTH
FMAT,2
METRIC
; #@! TA.AperFunction,Plated,PTH,ViaDrill
T1C0.400
; #@! TA.AperFunction,Plated,PTH,ComponentDrill
T2C0.950
; #@! TA.AperFunction,Plated,PTH,ComponentDrill
T3C1.000
; #@! TA.AperFunction,Plated,PTH,ComponentDrill
T4C1.900
; #@! TA.AperFunction,Plated,PTH,ComponentDrill
T5C3.200
%
G90
G05
T1
X44.8Y-33.6
X45.2Y-30.2
X46.2Y-73.8
X46.6Y-36.9
X47.8Y-55.6
X48.0Y-23.2
X48.8Y-34.6
X49.2Y-60.0
X49.6Y-68.0
X51.0Y-30.2
X52.1Y-26.6
X52.2Y-74.0
X52.8Y-32.6
X53.2Y-30.6
X53.7Y-23.2
X54.8Y-31.8
X55.2Y-49.3
X55.3Y-25.8
X55.4Y-35.0
X55.6Y-23.0
X56.2Y-27.6
X57.2Y-29.1
X59.9Y-22.9
X60.0Y-74.0
X61.2Y-56.5
X62.4Y-49.7
X62.7Y-29.2
X65.0Y-74.0
X65.4Y-60.2
X65.5Y-54.8
X65.6Y-48.2
X65.9Y-27.7
X66.2Y-68.8
X67.8Y-54.8
X68.2Y-45.2
X68.2Y-63.6
X68.6Y-32.0
X68.6Y-39.8
X68.6Y-71.6
X68.7Y-58.8
X68.8Y-27.0
X69.0Y-52.25
X70.2Y-37.2
X70.4Y-29.2
X70.5Y-63.5
X70.8Y-43.2
X70.8Y-69.2
X72.25Y-57.25
X72.4Y-39.6
X72.6Y-26.8
X72.6Y-63.5
X72.8Y-46.0
X74.2Y-53.4
X74.8Y-63.6
X75.2Y-27.0
X75.4Y-39.4
X76.9Y-71.8
X77.1Y-63.6
X77.4Y-69.7
X78.0Y-27.0
X78.2Y-39.0
X78.2Y-47.2
X78.2Y-59.1
X78.6Y-49.4
X78.7Y-56.6
X79.2Y-68.6
X79.4Y-63.6
X80.0Y-48.6
X80.2Y-33.0
X80.2Y-45.4
X80.4Y-26.9
X80.4Y-58.4
X81.8Y-56.3
X82.0Y-58.3
X82.4Y-71.2
X82.6Y-32.2
X82.8Y-38.6
X82.8Y-42.6
X82.8Y-45.8
X83.4Y-70.6
X83.8Y-27.0
X84.0Y-36.6
X84.0Y-66.8
X84.0Y-69.2
X84.1Y-57.9
X84.1Y-67.9
X84.2Y-60.0
X84.6Y-63.8
X84.8Y-49.0
X85.4Y-54.2
X86.4Y-29.8
X86.6Y-27.0
X86.725Y-43.2
X86.9Y-59.0
X87.0Y-40.8
X87.0Y-56.4
X87.0Y-56.4
X87.2Y-50.6
X87.2Y-51.8
X87.2Y-53.0
X88.2Y-55.6
X88.4Y-50.6
X88.4Y-51.8
X88.4Y-53.0
X88.6Y-33.8
X89.2Y-39.4
X89.2Y-47.7
X89.6Y-26.8
X89.6Y-46.8
X89.6Y-50.6
X89.6Y-51.8
X89.6Y-53.0
X89.8Y-43.6
X90.0Y-58.4
X90.1Y-61.2
X90.5Y-59.6
X90.6Y-56.0
X90.6Y-62.6
X90.8Y-74.6
X90.9Y-61.2
X91.2Y-31.0
X91.6Y-45.4
X91.6Y-47.8
X91.8Y-50.0
X91.8Y-53.6
X92.2Y-26.8
X93.0Y-41.6
X93.8Y-56.2
X93.9Y-43.2
X93.9Y-47.3
X93.9Y-59.7
X94.4Y-26.6
X95.7Y-46.9
X95.8Y-43.8
X95.8Y-59.6
X95.8Y-62.8
X96.0Y-56.8
X96.5Y-45.3
X96.5Y-58.2
X96.6Y-30.6
X96.6Y-68.8
X97.0Y-26.6
X97.0Y-39.2
X98.5Y-61.1
X98.8Y-34.4
X98.9Y-67.7
X99.6Y-28.0
X99.8Y-45.7
X99.9Y-57.5
X101.6Y-61.7
X102.2Y-37.8
X102.6Y-27.4
X103.2Y-45.7
X103.5Y-57.5
X104.3Y-62.3
X104.4Y-67.0
X105.4Y-31.4
X106.7Y-45.9
X106.8Y-27.0
X106.8Y-61.6
X107.2Y-35.2
X107.782Y-48.9
X107.782Y-52.9
X107.782Y-56.65
X108.5Y-44.0
X110.2Y-44.0
X110.25Y-59.75
T2
X97.5Y-48.0
X97.5Y-50.5
X97.5Y-53.0
X97.5Y-55.5
X100.7Y-48.0
X100.7Y-50.5
X100.7Y-53.0
X100.7Y-55.5
X103.9Y-47.95
X103.9Y-50.45
X103.9Y-52.95
X103.9Y-55.45
T3
X44.6Y-46.175
X44.6Y-48.715
X44.6Y-51.255
X45.675Y-58.5
X45.675Y-69.5
X66.373Y-24.64
X68.912Y-24.64
X70.432Y-72.9
X71.453Y-24.64
X72.972Y-72.9
X73.992Y-24.64
X75.513Y-72.9
X76.532Y-24.64
X78.052Y-72.9
X79.072Y-24.64
X80.593Y-72.9
X81.612Y-24.64
X83.132Y-72.9
X84.152Y-24.64
X85.672Y-72.9
X88.212Y-24.64
X88.212Y-72.9
X90.752Y-24.64
X93.292Y-24.64
X93.292Y-72.9
X95.832Y-24.64
X95.832Y-72.9
X98.373Y-24.64
X98.373Y-72.9
X100.912Y-24.64
X100.912Y-72.9
X103.453Y-24.64
X103.453Y-72.9
X105.992Y-24.64
X105.992Y-72.9
T4
X55.675Y-61.5
X55.675Y-66.5
T5
X62.0Y-35.0
X62.0Y-66.0
X93.0Y-35.0
X93.0Y-66.0
T0
M30
