%TF.GenerationSoftware,KiCad,Pcbnew,(7.0.0-0)*%
%TF.CreationDate,2023-03-29T11:58:47+02:00*%
%TF.ProjectId,tmc2209_devboard,746d6332-3230-4395-9f64-6576626f6172,rev?*%
%TF.SameCoordinates,Original*%
%TF.FileFunction,Soldermask,Top*%
%TF.FilePolarity,Negative*%
%FSLAX46Y46*%
G04 Gerber Fmt 4.6, Leading zero omitted, Abs format (unit mm)*
G04 Created by KiCad (PCBNEW (7.0.0-0)) date 2023-03-29 11:58:47*
%MOMM*%
%LPD*%
G01*
G04 APERTURE LIST*
G04 Aperture macros list*
%AMRoundRect*
0 Rectangle with rounded corners*
0 $1 Rounding radius*
0 $2 $3 $4 $5 $6 $7 $8 $9 X,Y pos of 4 corners*
0 Add a 4 corners polygon primitive as box body*
4,1,4,$2,$3,$4,$5,$6,$7,$8,$9,$2,$3,0*
0 Add four circle primitives for the rounded corners*
1,1,$1+$1,$2,$3*
1,1,$1+$1,$4,$5*
1,1,$1+$1,$6,$7*
1,1,$1+$1,$8,$9*
0 Add four rect primitives between the rounded corners*
20,1,$1+$1,$2,$3,$4,$5,0*
20,1,$1+$1,$4,$5,$6,$7,0*
20,1,$1+$1,$6,$7,$8,$9,0*
20,1,$1+$1,$8,$9,$2,$3,0*%
%AMFreePoly0*
4,1,19,0.500000,-0.750000,0.000000,-0.750000,0.000000,-0.744911,-0.071157,-0.744911,-0.207708,-0.704816,-0.327430,-0.627875,-0.420627,-0.520320,-0.479746,-0.390866,-0.500000,-0.250000,-0.500000,0.250000,-0.479746,0.390866,-0.420627,0.520320,-0.327430,0.627875,-0.207708,0.704816,-0.071157,0.744911,0.000000,0.744911,0.000000,0.750000,0.500000,0.750000,0.500000,-0.750000,0.500000,-0.750000,
$1*%
%AMFreePoly1*
4,1,19,0.000000,0.744911,0.071157,0.744911,0.207708,0.704816,0.327430,0.627875,0.420627,0.520320,0.479746,0.390866,0.500000,0.250000,0.500000,-0.250000,0.479746,-0.390866,0.420627,-0.520320,0.327430,-0.627875,0.207708,-0.704816,0.071157,-0.744911,0.000000,-0.744911,0.000000,-0.750000,-0.500000,-0.750000,-0.500000,0.750000,0.000000,0.750000,0.000000,0.744911,0.000000,0.744911,
$1*%
G04 Aperture macros list end*
%ADD10RoundRect,0.250000X0.450000X-0.262500X0.450000X0.262500X-0.450000X0.262500X-0.450000X-0.262500X0*%
%ADD11RoundRect,0.250000X-0.250000X-0.475000X0.250000X-0.475000X0.250000X0.475000X-0.250000X0.475000X0*%
%ADD12RoundRect,0.250000X0.262500X0.450000X-0.262500X0.450000X-0.262500X-0.450000X0.262500X-0.450000X0*%
%ADD13FreePoly0,270.000000*%
%ADD14FreePoly1,270.000000*%
%ADD15R,2.800000X1.000000*%
%ADD16RoundRect,0.250000X-1.750000X-1.000000X1.750000X-1.000000X1.750000X1.000000X-1.750000X1.000000X0*%
%ADD17FreePoly0,180.000000*%
%ADD18FreePoly1,180.000000*%
%ADD19R,1.700000X1.700000*%
%ADD20O,1.700000X1.700000*%
%ADD21C,6.400000*%
%ADD22RoundRect,0.225000X0.225000X0.375000X-0.225000X0.375000X-0.225000X-0.375000X0.225000X-0.375000X0*%
%ADD23RoundRect,0.250000X0.650000X-0.325000X0.650000X0.325000X-0.650000X0.325000X-0.650000X-0.325000X0*%
%ADD24RoundRect,0.250000X-0.262500X-0.450000X0.262500X-0.450000X0.262500X0.450000X-0.262500X0.450000X0*%
%ADD25RoundRect,0.250000X0.325000X0.650000X-0.325000X0.650000X-0.325000X-0.650000X0.325000X-0.650000X0*%
%ADD26RoundRect,0.250000X-0.725000X0.600000X-0.725000X-0.600000X0.725000X-0.600000X0.725000X0.600000X0*%
%ADD27O,1.950000X1.700000*%
%ADD28RoundRect,0.250000X-1.075000X0.362500X-1.075000X-0.362500X1.075000X-0.362500X1.075000X0.362500X0*%
%ADD29RoundRect,0.008100X-0.126900X0.396900X-0.126900X-0.396900X0.126900X-0.396900X0.126900X0.396900X0*%
%ADD30RoundRect,0.027000X-0.378000X0.108000X-0.378000X-0.108000X0.378000X-0.108000X0.378000X0.108000X0*%
%ADD31R,3.700000X3.700000*%
%ADD32RoundRect,0.250000X0.250000X0.475000X-0.250000X0.475000X-0.250000X-0.475000X0.250000X-0.475000X0*%
%ADD33C,1.400000*%
%ADD34R,3.500000X3.500000*%
%ADD35C,3.500000*%
%ADD36RoundRect,0.243750X0.456250X-0.243750X0.456250X0.243750X-0.456250X0.243750X-0.456250X-0.243750X0*%
%ADD37RoundRect,0.225000X0.375000X-0.225000X0.375000X0.225000X-0.375000X0.225000X-0.375000X-0.225000X0*%
%ADD38RoundRect,0.250000X1.075000X-0.362500X1.075000X0.362500X-1.075000X0.362500X-1.075000X-0.362500X0*%
%ADD39C,3.200000*%
%ADD40R,1.600000X1.600000*%
%ADD41O,1.600000X1.600000*%
G04 APERTURE END LIST*
D10*
%TO.C,R4*%
X63600000Y-25712500D03*
X63600000Y-23887500D03*
%TD*%
D11*
%TO.C,C1*%
X86525000Y-63400000D03*
X88425000Y-63400000D03*
%TD*%
D10*
%TO.C,R5*%
X69300000Y-66625000D03*
X69300000Y-64800000D03*
%TD*%
D12*
%TO.C,R1*%
X90112500Y-70600000D03*
X88287500Y-70600000D03*
%TD*%
D13*
%TO.C,JP2*%
X71500000Y-60300000D03*
D14*
X71500000Y-61600000D03*
%TD*%
D15*
%TO.C,SW1*%
X45199999Y-24499999D03*
X50999999Y-24499999D03*
X45199999Y-28499999D03*
X50999999Y-28499999D03*
%TD*%
D16*
%TO.C,C4*%
X108300000Y-63900000D03*
X100300000Y-63900000D03*
%TD*%
D17*
%TO.C,JP5*%
X82250000Y-62400000D03*
D18*
X80950000Y-62400000D03*
%TD*%
D13*
%TO.C,JP1*%
X69300000Y-60300000D03*
D14*
X69300000Y-61600000D03*
%TD*%
D19*
%TO.C,J2*%
X44599999Y-46174999D03*
D20*
X44599999Y-48714999D03*
X44599999Y-51254999D03*
%TD*%
D21*
%TO.C,H1*%
X62000000Y-35000000D03*
%TD*%
D10*
%TO.C,R9*%
X78100000Y-66625000D03*
X78100000Y-64800000D03*
%TD*%
D22*
%TO.C,D1*%
X88600000Y-61200000D03*
X85300000Y-61200000D03*
%TD*%
D12*
%TO.C,R13*%
X82612500Y-60200000D03*
X80787500Y-60200000D03*
%TD*%
D21*
%TO.C,H4*%
X62000000Y-66000000D03*
%TD*%
D23*
%TO.C,C8*%
X82782500Y-49875000D03*
X82782500Y-46925000D03*
%TD*%
D13*
%TO.C,JP3*%
X73700000Y-60300000D03*
D14*
X73700000Y-61600000D03*
%TD*%
D21*
%TO.C,H3*%
X93000000Y-66000000D03*
%TD*%
D24*
%TO.C,R10*%
X79687500Y-36900000D03*
X81512500Y-36900000D03*
%TD*%
D25*
%TO.C,C3*%
X88350000Y-68000000D03*
X85400000Y-68000000D03*
%TD*%
D26*
%TO.C,J5*%
X97500000Y-48000000D03*
D27*
X97499999Y-50499999D03*
X97499999Y-52999999D03*
X97499999Y-55499999D03*
%TD*%
D28*
%TO.C,R12*%
X93817500Y-45375000D03*
X93817500Y-50000000D03*
%TD*%
D10*
%TO.C,R7*%
X73700000Y-66625000D03*
X73700000Y-64800000D03*
%TD*%
%TO.C,R6*%
X71500000Y-66625000D03*
X71500000Y-64800000D03*
%TD*%
D11*
%TO.C,C6*%
X87632500Y-45250000D03*
X89532500Y-45250000D03*
%TD*%
D29*
%TO.C,U1*%
X89832500Y-49300000D03*
X89332500Y-49300000D03*
X88832500Y-49300000D03*
X88332500Y-49300000D03*
X87832500Y-49300000D03*
X87332500Y-49300000D03*
X86832500Y-49300000D03*
D30*
X85882500Y-50250000D03*
X85882500Y-50750000D03*
X85882500Y-51250000D03*
X85882500Y-51750000D03*
X85882500Y-52250000D03*
X85882500Y-52750000D03*
X85882500Y-53250000D03*
D29*
X86832500Y-54200000D03*
X87332500Y-54200000D03*
X87832500Y-54200000D03*
X88332500Y-54200000D03*
X88832500Y-54200000D03*
X89332500Y-54200000D03*
X89832500Y-54200000D03*
D30*
X90782500Y-53250000D03*
X90782500Y-52750000D03*
X90782500Y-52250000D03*
X90782500Y-51750000D03*
X90782500Y-51250000D03*
X90782500Y-50750000D03*
X90782500Y-50250000D03*
D31*
X88332499Y-51749999D03*
%TD*%
D25*
%TO.C,C2*%
X88350000Y-65600000D03*
X85400000Y-65600000D03*
%TD*%
D32*
%TO.C,C7*%
X86750000Y-47400000D03*
X84850000Y-47400000D03*
%TD*%
D33*
%TO.C,J1*%
X45675000Y-69500000D03*
X45675000Y-58500000D03*
D34*
X55674999Y-61499999D03*
D35*
X55675000Y-66500000D03*
%TD*%
D36*
%TO.C,D2*%
X61350000Y-25762500D03*
X61350000Y-23887500D03*
%TD*%
D10*
%TO.C,R8*%
X75900000Y-66625000D03*
X75900000Y-64800000D03*
%TD*%
D13*
%TO.C,JP4*%
X75900000Y-60300000D03*
D14*
X75900000Y-61600000D03*
%TD*%
D26*
%TO.C,J4*%
X103900000Y-47950000D03*
D27*
X103899999Y-50449999D03*
X103899999Y-52949999D03*
X103899999Y-55449999D03*
%TD*%
D21*
%TO.C,H2*%
X93000000Y-35000000D03*
%TD*%
D37*
%TO.C,D3*%
X80282500Y-49900000D03*
X80282500Y-46600000D03*
%TD*%
D12*
%TO.C,R2*%
X86537500Y-70600000D03*
X84712500Y-70600000D03*
%TD*%
D38*
%TO.C,R11*%
X93800000Y-58112500D03*
X93800000Y-53487500D03*
%TD*%
D26*
%TO.C,J6*%
X100700000Y-48000000D03*
D27*
X100699999Y-50499999D03*
X100699999Y-52999999D03*
X100699999Y-55499999D03*
%TD*%
D39*
%TO.C,A1*%
X56462500Y-72900000D03*
X57732500Y-24640000D03*
X108532500Y-39880000D03*
X108532500Y-67820000D03*
D40*
X70432499Y-72899999D03*
D41*
X72972499Y-72899999D03*
X75512499Y-72899999D03*
X78052499Y-72899999D03*
X80592499Y-72899999D03*
X83132499Y-72899999D03*
X85672499Y-72899999D03*
X88212499Y-72899999D03*
X93292499Y-72899999D03*
X95832499Y-72899999D03*
X98372499Y-72899999D03*
X100912499Y-72899999D03*
X103452499Y-72899999D03*
X105992499Y-72899999D03*
X105992499Y-24639999D03*
X103452499Y-24639999D03*
X100912499Y-24639999D03*
X98372499Y-24639999D03*
X95832499Y-24639999D03*
X93292499Y-24639999D03*
X90752499Y-24639999D03*
X88212499Y-24639999D03*
X84152499Y-24639999D03*
X81612499Y-24639999D03*
X79072499Y-24639999D03*
X76532499Y-24639999D03*
X73992499Y-24639999D03*
X71452499Y-24639999D03*
X68912499Y-24639999D03*
X66372499Y-24639999D03*
%TD*%
M02*
