%TF.GenerationSoftware,KiCad,Pcbnew,(7.0.0-0)*%
%TF.CreationDate,2023-03-13T17:40:40+01:00*%
%TF.ProjectId,tmc2209_devboard,746d6332-3230-4395-9f64-6576626f6172,rev?*%
%TF.SameCoordinates,Original*%
%TF.FileFunction,Paste,Top*%
%TF.FilePolarity,Positive*%
%FSLAX46Y46*%
G04 Gerber Fmt 4.6, Leading zero omitted, Abs format (unit mm)*
G04 Created by KiCad (PCBNEW (7.0.0-0)) date 2023-03-13 17:40:40*
%MOMM*%
%LPD*%
G01*
G04 APERTURE LIST*
G04 Aperture macros list*
%AMRoundRect*
0 Rectangle with rounded corners*
0 $1 Rounding radius*
0 $2 $3 $4 $5 $6 $7 $8 $9 X,Y pos of 4 corners*
0 Add a 4 corners polygon primitive as box body*
4,1,4,$2,$3,$4,$5,$6,$7,$8,$9,$2,$3,0*
0 Add four circle primitives for the rounded corners*
1,1,$1+$1,$2,$3*
1,1,$1+$1,$4,$5*
1,1,$1+$1,$6,$7*
1,1,$1+$1,$8,$9*
0 Add four rect primitives between the rounded corners*
20,1,$1+$1,$2,$3,$4,$5,0*
20,1,$1+$1,$4,$5,$6,$7,0*
20,1,$1+$1,$6,$7,$8,$9,0*
20,1,$1+$1,$8,$9,$2,$3,0*%
G04 Aperture macros list end*
%ADD10C,0.010000*%
%ADD11RoundRect,0.250000X0.450000X-0.262500X0.450000X0.262500X-0.450000X0.262500X-0.450000X-0.262500X0*%
%ADD12RoundRect,0.250000X-0.250000X-0.475000X0.250000X-0.475000X0.250000X0.475000X-0.250000X0.475000X0*%
%ADD13RoundRect,0.250000X0.262500X0.450000X-0.262500X0.450000X-0.262500X-0.450000X0.262500X-0.450000X0*%
%ADD14R,2.800000X1.000000*%
%ADD15RoundRect,0.250000X-1.750000X-1.000000X1.750000X-1.000000X1.750000X1.000000X-1.750000X1.000000X0*%
%ADD16RoundRect,0.225000X0.225000X0.375000X-0.225000X0.375000X-0.225000X-0.375000X0.225000X-0.375000X0*%
%ADD17RoundRect,0.250000X0.475000X-0.250000X0.475000X0.250000X-0.475000X0.250000X-0.475000X-0.250000X0*%
%ADD18RoundRect,0.250000X0.650000X-0.325000X0.650000X0.325000X-0.650000X0.325000X-0.650000X-0.325000X0*%
%ADD19RoundRect,0.250000X-0.262500X-0.450000X0.262500X-0.450000X0.262500X0.450000X-0.262500X0.450000X0*%
%ADD20RoundRect,0.250000X0.325000X0.650000X-0.325000X0.650000X-0.325000X-0.650000X0.325000X-0.650000X0*%
%ADD21RoundRect,0.250000X-1.075000X0.362500X-1.075000X-0.362500X1.075000X-0.362500X1.075000X0.362500X0*%
%ADD22RoundRect,0.008100X-0.126900X0.396900X-0.126900X-0.396900X0.126900X-0.396900X0.126900X0.396900X0*%
%ADD23RoundRect,0.027000X-0.378000X0.108000X-0.378000X-0.108000X0.378000X-0.108000X0.378000X0.108000X0*%
%ADD24RoundRect,0.250000X0.250000X0.475000X-0.250000X0.475000X-0.250000X-0.475000X0.250000X-0.475000X0*%
%ADD25RoundRect,0.243750X0.456250X-0.243750X0.456250X0.243750X-0.456250X0.243750X-0.456250X-0.243750X0*%
%ADD26RoundRect,0.225000X0.375000X-0.225000X0.375000X0.225000X-0.375000X0.225000X-0.375000X-0.225000X0*%
%ADD27RoundRect,0.250000X1.075000X-0.362500X1.075000X0.362500X-1.075000X0.362500X-1.075000X-0.362500X0*%
G04 APERTURE END LIST*
%TO.C,U1*%
G36*
X89502500Y-52920000D02*
G01*
X87162500Y-52920000D01*
X87162500Y-50580000D01*
X89502500Y-50580000D01*
X89502500Y-52920000D01*
G37*
D10*
X89502500Y-52920000D02*
X87162500Y-52920000D01*
X87162500Y-50580000D01*
X89502500Y-50580000D01*
X89502500Y-52920000D01*
%TD*%
D11*
%TO.C,R4*%
X63600000Y-25712500D03*
X63600000Y-23887500D03*
%TD*%
D12*
%TO.C,C1*%
X86525000Y-63400000D03*
X88425000Y-63400000D03*
%TD*%
D11*
%TO.C,R5*%
X69300000Y-66625000D03*
X69300000Y-64800000D03*
%TD*%
D13*
%TO.C,R1*%
X90112500Y-70600000D03*
X88287500Y-70600000D03*
%TD*%
D14*
%TO.C,SW1*%
X45199999Y-24499999D03*
X50999999Y-24499999D03*
X45199999Y-28499999D03*
X50999999Y-28499999D03*
%TD*%
D15*
%TO.C,C4*%
X98800000Y-64000000D03*
X106800000Y-64000000D03*
%TD*%
D11*
%TO.C,R9*%
X78100000Y-66625000D03*
X78100000Y-64800000D03*
%TD*%
D16*
%TO.C,D1*%
X85300000Y-61200000D03*
X88600000Y-61200000D03*
%TD*%
D13*
%TO.C,R13*%
X80787500Y-60200000D03*
X82612500Y-60200000D03*
%TD*%
D11*
%TO.C,R3*%
X54250000Y-30162500D03*
X54250000Y-28337500D03*
%TD*%
D17*
%TO.C,C5*%
X54250000Y-26450000D03*
X54250000Y-24550000D03*
%TD*%
D18*
%TO.C,C8*%
X82782500Y-49875000D03*
X82782500Y-46925000D03*
%TD*%
D19*
%TO.C,R10*%
X79687500Y-36900000D03*
X81512500Y-36900000D03*
%TD*%
D20*
%TO.C,C3*%
X88350000Y-68000000D03*
X85400000Y-68000000D03*
%TD*%
D21*
%TO.C,R12*%
X95800000Y-45375000D03*
X95800000Y-50000000D03*
%TD*%
D11*
%TO.C,R7*%
X73700000Y-66625000D03*
X73700000Y-64800000D03*
%TD*%
%TO.C,R6*%
X71500000Y-66625000D03*
X71500000Y-64800000D03*
%TD*%
D12*
%TO.C,C6*%
X87632500Y-45250000D03*
X89532500Y-45250000D03*
%TD*%
D22*
%TO.C,U1*%
X89832500Y-49300000D03*
X89332500Y-49300000D03*
X88832500Y-49300000D03*
X88332500Y-49300000D03*
X87832500Y-49300000D03*
X87332500Y-49300000D03*
X86832500Y-49300000D03*
D23*
X85882500Y-50250000D03*
X85882500Y-50750000D03*
X85882500Y-51250000D03*
X85882500Y-51750000D03*
X85882500Y-52250000D03*
X85882500Y-52750000D03*
X85882500Y-53250000D03*
D22*
X86832500Y-54200000D03*
X87332500Y-54200000D03*
X87832500Y-54200000D03*
X88332500Y-54200000D03*
X88832500Y-54200000D03*
X89332500Y-54200000D03*
X89832500Y-54200000D03*
D23*
X90782500Y-53250000D03*
X90782500Y-52750000D03*
X90782500Y-52250000D03*
X90782500Y-51750000D03*
X90782500Y-51250000D03*
X90782500Y-50750000D03*
X90782500Y-50250000D03*
%TD*%
D20*
%TO.C,C2*%
X88350000Y-65600000D03*
X85400000Y-65600000D03*
%TD*%
D24*
%TO.C,C7*%
X86750000Y-47400000D03*
X84850000Y-47400000D03*
%TD*%
D25*
%TO.C,D2*%
X61350000Y-25762500D03*
X61350000Y-23887500D03*
%TD*%
D11*
%TO.C,R8*%
X75900000Y-66625000D03*
X75900000Y-64800000D03*
%TD*%
D26*
%TO.C,D3*%
X80282500Y-49900000D03*
X80282500Y-46600000D03*
%TD*%
D13*
%TO.C,R2*%
X86537500Y-70600000D03*
X84712500Y-70600000D03*
%TD*%
D27*
%TO.C,R11*%
X95782500Y-58112500D03*
X95782500Y-53487500D03*
%TD*%
M02*
