%TF.GenerationSoftware,KiCad,Pcbnew,(7.0.0-0)*%
%TF.CreationDate,2023-03-13T17:40:40+01:00*%
%TF.ProjectId,tmc2209_devboard,746d6332-3230-4395-9f64-6576626f6172,rev?*%
%TF.SameCoordinates,Original*%
%TF.FileFunction,Legend,Bot*%
%TF.FilePolarity,Positive*%
%FSLAX46Y46*%
G04 Gerber Fmt 4.6, Leading zero omitted, Abs format (unit mm)*
G04 Created by KiCad (PCBNEW (7.0.0-0)) date 2023-03-13 17:40:40*
%MOMM*%
%LPD*%
G01*
G04 APERTURE LIST*
%ADD10C,0.125000*%
%ADD11C,0.120000*%
G04 APERTURE END LIST*
D10*
%TO.C,A1*%
X107857141Y-75040833D02*
X107619046Y-75040833D01*
X107904760Y-75183690D02*
X107738094Y-74683690D01*
X107738094Y-74683690D02*
X107571427Y-75183690D01*
X107142856Y-75183690D02*
X107428570Y-75183690D01*
X107285713Y-75183690D02*
X107285713Y-74683690D01*
X107285713Y-74683690D02*
X107333332Y-74755119D01*
X107333332Y-74755119D02*
X107380951Y-74802738D01*
X107380951Y-74802738D02*
X107428570Y-74826547D01*
D11*
X36030000Y-31600000D02*
X42380000Y-31600000D01*
X36030000Y-43280000D02*
X36030000Y-31600000D01*
X40480000Y-63350000D02*
X42380000Y-63350000D01*
X40480000Y-72490000D02*
X40480000Y-63350000D01*
X42380000Y-22070000D02*
X107030000Y-22070000D01*
X42380000Y-31600000D02*
X42380000Y-22070000D01*
X42380000Y-43280000D02*
X36030000Y-43280000D01*
X42380000Y-63350000D02*
X42380000Y-43280000D01*
X42380000Y-72490000D02*
X40480000Y-72490000D01*
X42380000Y-75670000D02*
X42380000Y-72490000D01*
X107030000Y-22070000D02*
X108680000Y-23720000D01*
X108680000Y-23720000D02*
X108680000Y-35150000D01*
X108680000Y-35150000D02*
X111220000Y-37690000D01*
X108680000Y-73000000D02*
X108680000Y-75670000D01*
X108680000Y-75670000D02*
X42380000Y-75670000D01*
X111220000Y-37690000D02*
X111220000Y-70460000D01*
X111220000Y-70460000D02*
X108680000Y-73000000D01*
%TD*%
M02*
